<svg width="128" height="128" viewBox="0 0 128 128" fill="none" xmlns="http://www.w3.org/2000/svg">
<path d="M126.5 63.9999C126.5 52.253 123.189 40.7438 116.948 30.7922C110.707 20.8405 101.787 12.8493 91.2118 7.73478C80.6367 2.62028 68.8343 0.589601 57.1579 1.87558C45.4816 3.16156 34.404 7.71214 25.1954 15.0055L45.7325 40.9355C50.0675 37.502 55.2823 35.3598 60.779 34.7544C66.2758 34.1491 71.8318 35.105 76.8102 37.5127C81.7885 39.9204 85.9875 43.6823 88.9257 48.3671C91.8639 53.0519 93.4223 58.47 93.4223 63.9999H126.5Z" fill="#DD750D"/>
<path d="M2.48129 63.9999C2.4813 75.7469 5.79182 87.2561 12.0333 97.2077C18.2747 107.159 27.1944 115.151 37.7695 120.265C48.3446 125.38 60.147 127.41 71.8234 126.124C83.4997 124.838 94.5773 120.288 103.786 112.994L83.2488 87.0644C78.9138 90.4978 73.699 92.6401 68.2023 93.2454C62.7055 93.8508 57.1495 92.8949 52.1711 90.4872C47.1928 88.0795 42.9938 84.3176 40.0556 79.6328C37.1174 74.9479 35.559 69.5299 35.559 63.9999L2.48129 63.9999Z" fill="#DD750D"/>
<circle cx="64.6343" cy="62.8784" r="10.3133" fill="#FFFEFE" stroke="#DD750D" stroke-width="5"/>
</svg>
